<svg xmlns="http://www.w3.org/2000/svg" preserveAspectRatio="xMidYMid" viewBox="0 0 270 260"><defs><style type="text/css">rect{stroke:#000;stroke-width:1}text{font-size:6.1225pt;font-family:sans-serif}g rect{width:128;fill:#4586f4}g g g g g g text,g g g g g text,g g g g rect,g g g text,g text{fill:#fff}g g rect{fill:#f4b400}g g g g text,g g text{fill:#000}g g g rect{fill:#0f9d58}g g g g g rect{fill:#db4437}g g g g g g rect{fill:#656565}</style></defs><g><rect width="128" height="259" x="1" y="1"/><text x="2" y="8.5">Request (&apos;request&apos;)</text><g transform="translate(3, 12)"><rect width="122" height="9.5" x="1" y="1"/><text x="2" y="8.5">Hardware Attributes (&apos;hw&apos;)</text></g><g transform="translate(3, 24)"><rect width="122" height="9.5" x="1" y="1"/><text x="2" y="8.5">OS Attributes (&apos;os&apos;)</text></g><g transform="translate(3, 48)"><rect width="122" height="181" x="1" y="1"/><text x="2" y="8.5">App 1 (&apos;app&apos;)</text><g transform="translate(3, 12)"><rect width="115" height="142" x="1" y="1"/><text x="2" y="8.5">Update Check (&apos;updatecheck&apos;)</text></g><g transform="translate(3, 157)"><rect width="115" height="9.5" x="1" y="1"/><text x="2" y="8.5">Data (&apos;data&apos;)</text></g><g transform="translate(3, 169)"><rect width="115" height="9.5" x="1" y="1"/><text x="2" y="8.5">Ping (&apos;ping&apos;)</text></g></g><g transform="translate(3, 232)"><rect width="122" height="24" x="1" y="1"/><text x="2" y="8.5">App 2 (&apos;app&apos;)</text><g transform="translate(3, 12)"><rect width="115" height="9.5" x="1" y="1"/><text x="2" y="8.5">Event Ping (&apos;event&apos;)</text></g></g></g><g transform="translate(140, 0)"><rect width="128" height="259" x="1" y="1"/><text x="2" y="8.5">Response (&apos;response&apos;)</text><g transform="translate(3, 36)"><rect width="122" height="9.5" x="1" y="1"/><text x="2" y="8.5">Server Time (&apos;daystart&apos;)</text></g><g transform="translate(3, 48)"><rect width="122" height="181" x="1" y="1"/><text x="2" y="8.5">App 1 (&apos;app&apos;)</text><g transform="translate(3, 12)"><rect width="115" height="142" x="1" y="1"/><text x="2" y="8.5">Update Check (&apos;updatecheck&apos;)</text><g transform="translate(3, 12)"><rect width="108" height="36" x="1" y="1"/><text x="2" y="8.5">URLs (&apos;urls&apos;)</text><g transform="translate(3, 12)"><rect width="101" height="9.5" x="1" y="1"/><text x="2" y="8.5">Base URL 1 (&apos;url&apos;)</text></g><g transform="translate(3, 24)"><rect width="101" height="9.5" x="1" y="1"/><text x="2" y="8.5">Base URL 2 (&apos;url&apos;)</text></g></g><g transform="translate(3, 50)"><rect width="108" height="89" x="1" y="1"/><text x="2" y="8.5">Manifest (&apos;manifest&apos;)</text><g transform="translate(3, 12)"><rect width="101" height="36" x="1" y="1"/><text x="2" y="8.5">Packages (&apos;packages&apos;)</text><g transform="translate(3, 12)"><rect width="94" height="9.5" x="1" y="1"/><text x="2" y="8.5">Package 1 (&apos;package&apos;)</text></g><g transform="translate(3, 24)"><rect width="94" height="9.5" x="1" y="1"/><text x="2" y="8.5">Package 2 (&apos;package&apos;)</text></g></g><g transform="translate(3, 50)"><rect width="101" height="36" x="1" y="1"/><text x="2" y="8.5">Actions (&apos;actions&apos;)</text><g transform="translate(3, 12)"><rect width="94" height="9.5" x="1" y="1"/><text x="2" y="8.5">Action 1 (&apos;action&apos;)</text></g><g transform="translate(3, 24)"><rect width="94" height="9.5" x="1" y="1"/><text x="2" y="8.5">Action 2 (&apos;action&apos;)</text></g></g></g></g><g transform="translate(3, 157)"><rect width="115" height="9.5" x="1" y="1"/><text x="2" y="8.5">Data (&apos;data&apos;)</text></g><g transform="translate(3, 169)"><rect width="115" height="9.5" x="1" y="1"/><text x="2" y="8.5">Ping (&apos;ping&apos;)</text></g></g><g transform="translate(3, 232)"><rect width="122" height="24" x="1" y="1"/><text x="2" y="8.5">App 2 (&apos;app&apos;)</text><g transform="translate(3, 12)"><rect width="115" height="9.5" x="1" y="1"/><text x="2" y="8.5">Event Ping (&apos;event&apos;)</text></g></g></g></svg>